<svg width="46" height="44" viewBox="0 0 46 44" fill="none" xmlns="http://www.w3.org/2000/svg">
<path d="M21.1441 3.6217C21.8159 1.94876 24.1841 1.94876 24.8559 3.6217L28.9977 13.9356C29.2838 14.648 29.9524 15.1338 30.7184 15.1858L41.8074 15.9376C43.6061 16.0596 44.3379 18.312 42.9544 19.4679L34.4252 26.5941C33.836 27.0864 33.5807 27.8724 33.768 28.6169L36.4796 39.3955C36.9194 41.1438 35.0034 42.5358 33.4766 41.5773L24.0634 35.6676C23.4132 35.2594 22.5868 35.2594 21.9366 35.6676L12.5234 41.5773C10.9966 42.5358 9.08062 41.1438 9.52044 39.3955L12.232 28.6169C12.4193 27.8724 12.164 27.0864 11.5748 26.5941L3.04556 19.4679C1.6621 18.312 2.39394 16.0596 4.1926 15.9376L15.2816 15.1858C16.0476 15.1338 16.7162 14.648 17.0023 13.9356L21.1441 3.6217Z" stroke="#864971" stroke-width="4"/>
</svg>
