<svg width="395" height="174" viewBox="0 0 395 174" fill="none" xmlns="http://www.w3.org/2000/svg">
<path d="M146.136 119L153.864 72.4545H163.705L157.341 110.886H177.295L175.932 119H146.136ZM180.153 132.091L188.199 84.0909H197.744L196.767 89.9545H197.199C197.775 89.0152 198.54 88.0606 199.494 87.0909C200.464 86.1061 201.669 85.2879 203.108 84.6364C204.547 83.9697 206.237 83.6364 208.176 83.6364C210.737 83.6364 212.972 84.303 214.881 85.6364C216.79 86.9545 218.169 88.947 219.017 91.6136C219.881 94.2652 219.979 97.5909 219.312 101.591C218.676 105.485 217.502 108.773 215.79 111.455C214.093 114.121 212.055 116.144 209.676 117.523C207.313 118.886 204.805 119.568 202.153 119.568C200.275 119.568 198.729 119.258 197.517 118.636C196.32 118.015 195.388 117.235 194.722 116.295C194.055 115.341 193.585 114.379 193.312 113.409H192.949L189.858 132.091H180.153ZM194.767 101.545C194.434 103.621 194.419 105.432 194.722 106.977C195.04 108.523 195.676 109.727 196.631 110.591C197.585 111.439 198.843 111.864 200.403 111.864C201.979 111.864 203.381 111.432 204.608 110.568C205.835 109.689 206.858 108.477 207.676 106.932C208.494 105.371 209.078 103.576 209.426 101.545C209.744 99.5303 209.752 97.7576 209.449 96.2273C209.146 94.697 208.525 93.5 207.585 92.6364C206.646 91.7727 205.373 91.3409 203.767 91.3409C202.206 91.3409 200.805 91.7576 199.562 92.5909C198.335 93.4242 197.313 94.6061 196.494 96.1364C195.676 97.6667 195.1 99.4697 194.767 101.545ZM247.693 104.136L251.034 84.0909H260.716L254.898 119H245.602L246.648 112.659H246.284C245.208 114.705 243.64 116.348 241.58 117.591C239.519 118.833 237.178 119.455 234.557 119.455C232.223 119.455 230.254 118.924 228.648 117.864C227.057 116.803 225.928 115.295 225.261 113.341C224.595 111.386 224.481 109.045 224.92 106.318L228.648 84.0909H238.33L234.92 104.591C234.602 106.652 234.89 108.28 235.784 109.477C236.678 110.674 238.042 111.273 239.875 111.273C241.042 111.273 242.17 111.008 243.261 110.477C244.367 109.932 245.322 109.129 246.125 108.068C246.928 107.008 247.451 105.697 247.693 104.136ZM262.642 119L268.46 84.0909H277.847L276.824 90.1818H277.188C278.188 88.0152 279.528 86.3788 281.21 85.2727C282.907 84.1515 284.733 83.5909 286.688 83.5909C287.172 83.5909 287.68 83.6212 288.21 83.6818C288.756 83.7273 289.241 83.803 289.665 83.9091L288.21 92.5227C287.786 92.3712 287.18 92.25 286.392 92.1591C285.619 92.053 284.884 92 284.188 92C282.778 92 281.468 92.3106 280.256 92.9318C279.044 93.5379 278.021 94.3864 277.188 95.4773C276.369 96.5682 275.831 97.8258 275.574 99.25L272.324 119H262.642ZM286.716 132.091L294.761 84.0909H304.307L303.33 89.9545H303.761C304.337 89.0152 305.102 88.0606 306.057 87.0909C307.027 86.1061 308.231 85.2879 309.67 84.6364C311.11 83.9697 312.799 83.6364 314.739 83.6364C317.299 83.6364 319.534 84.303 321.443 85.6364C323.352 86.9545 324.731 88.947 325.58 91.6136C326.443 94.2652 326.542 97.5909 325.875 101.591C325.239 105.485 324.064 108.773 322.352 111.455C320.655 114.121 318.617 116.144 316.239 117.523C313.875 118.886 311.367 119.568 308.716 119.568C306.837 119.568 305.292 119.258 304.08 118.636C302.883 118.015 301.951 117.235 301.284 116.295C300.617 115.341 300.148 114.379 299.875 113.409H299.511L296.42 132.091H286.716ZM301.33 101.545C300.996 103.621 300.981 105.432 301.284 106.977C301.602 108.523 302.239 109.727 303.193 110.591C304.148 111.439 305.405 111.864 306.966 111.864C308.542 111.864 309.943 111.432 311.17 110.568C312.398 109.689 313.42 108.477 314.239 106.932C315.057 105.371 315.64 103.576 315.989 101.545C316.307 99.5303 316.314 97.7576 316.011 96.2273C315.708 94.697 315.087 93.5 314.148 92.6364C313.208 91.7727 311.936 91.3409 310.33 91.3409C308.769 91.3409 307.367 91.7576 306.125 92.5909C304.898 93.4242 303.875 94.6061 303.057 96.1364C302.239 97.6667 301.663 99.4697 301.33 101.545ZM346.801 72.4545L339.074 119H329.392L337.119 72.4545H346.801ZM362.648 119.682C359.072 119.682 356.11 118.955 353.761 117.5C351.413 116.03 349.761 113.955 348.807 111.273C347.867 108.576 347.708 105.386 348.33 101.705C348.936 98.1136 350.155 94.9621 351.989 92.25C353.837 89.5379 356.155 87.4242 358.943 85.9091C361.731 84.3939 364.837 83.6364 368.261 83.6364C370.564 83.6364 372.648 84.0076 374.511 84.75C376.39 85.4773 377.951 86.5833 379.193 88.0682C380.436 89.5379 381.284 91.3788 381.739 93.5909C382.208 95.803 382.201 98.3939 381.716 101.364L381.284 104.023H351.83L352.761 98.0227H373.125C373.352 96.6288 373.261 95.3939 372.852 94.3182C372.443 93.2424 371.761 92.4015 370.807 91.7955C369.852 91.1742 368.678 90.8636 367.284 90.8636C365.86 90.8636 364.527 91.2121 363.284 91.9091C362.042 92.6061 360.996 93.5227 360.148 94.6591C359.314 95.7803 358.777 97 358.534 98.3182L357.466 104.273C357.163 106.106 357.223 107.629 357.648 108.841C358.087 110.053 358.845 110.962 359.92 111.568C360.996 112.159 362.36 112.455 364.011 112.455C365.087 112.455 366.095 112.303 367.034 112C367.989 111.697 368.837 111.25 369.58 110.659C370.322 110.053 370.928 109.303 371.398 108.409L380.239 109C379.42 111.152 378.178 113.03 376.511 114.636C374.845 116.227 372.837 117.47 370.489 118.364C368.155 119.242 365.542 119.682 362.648 119.682Z" fill="#864971"/>
<path d="M98.2727 107.838C114.179 107.838 118.639 92.8633 117.672 87.9702C117.496 84.7011 114.662 82.1069 111.213 82.1069C107.698 82.1069 104.82 84.8066 104.754 88.1811C103.741 99.3129 91.8355 96.4044 91.8355 89.3622C91.8355 75.7585 91.8355 67.5542 101.261 54.1615C124.109 21.6604 79.159 -15.4596 49.0605 10.8829C36.406 21.9767 34.0772 40.5789 43.634 54.1615C53.3886 68.0604 52.1363 73.6706 53.0371 88.0335C53.0371 95.4617 40.1408 97.5813 40.1408 86.9789C40.1408 83.5622 37.2408 80.7782 33.6598 80.7782C30.1007 80.7782 27.2007 83.5622 27.2007 86.9789C27.2007 107.308 50.9236 112.271 61.6711 99.6124V117.455C61.6711 120.872 58.7711 123.656 55.212 123.656C51.4882 123.656 48.753 121.427 48.753 116.401C48.753 112.984 45.853 110.2 42.2939 110.2C38.7128 110.2 35.8128 112.984 35.8128 116.401C35.8128 126.583 42.5092 135.931 55.234 135.931C62.7477 135.931 68.8772 132.029 72.1287 125.871C75.1605 132.788 81.5977 137.26 89.6605 137.26C102.337 137.26 109.06 127.874 109.06 117.729C109.06 114.313 106.16 111.529 102.601 111.529C99.0416 111.529 96.1416 114.313 96.1416 117.729C96.1416 122.749 93.4613 124.985 89.6825 124.985C86.1234 124.985 83.2234 122.201 83.2234 118.784V100.962C86.7847 105.159 92.209 107.838 98.2727 107.838ZM59.1029 51.3121C54.2608 51.3121 50.315 47.5242 50.315 42.8757C50.315 38.2104 54.2608 34.4204 59.1029 34.4204C63.945 34.4204 67.8908 38.2083 67.8908 42.8757C67.8908 47.5242 63.9428 51.3121 59.1029 51.3121ZM76.9972 42.8757C76.9972 38.2146 80.9386 34.4309 85.7939 34.4309C90.6294 34.4309 94.573 38.2146 94.573 42.8757C94.573 47.5178 90.6316 51.3036 85.7939 51.3036C80.9386 51.3036 76.9972 47.5178 76.9972 42.8757Z" fill="#864971"/>
</svg>
