<svg width="50" height="50" viewBox="0 0 50 50" fill="none" xmlns="http://www.w3.org/2000/svg">
<path fill-rule="evenodd" clip-rule="evenodd" d="M24.9998 27.0833C26.1504 27.0833 27.0832 26.1506 27.0832 25C27.0832 23.8494 26.1504 22.9167 24.9998 22.9167C23.8492 22.9167 22.9165 23.8494 22.9165 25C22.9165 26.1506 23.8492 27.0833 24.9998 27.0833Z" stroke="#864971" stroke-width="4"/>
<path fill-rule="evenodd" clip-rule="evenodd" d="M12.4998 27.0833C13.6504 27.0833 14.5832 26.1506 14.5832 25C14.5832 23.8494 13.6504 22.9167 12.4998 22.9167C11.3492 22.9167 10.4165 23.8494 10.4165 25C10.4165 26.1506 11.3492 27.0833 12.4998 27.0833Z" stroke="#864971" stroke-width="4"/>
<path fill-rule="evenodd" clip-rule="evenodd" d="M37.4998 27.0833C38.6504 27.0833 39.5832 26.1506 39.5832 25C39.5832 23.8494 38.6504 22.9167 37.4998 22.9167C36.3492 22.9167 35.4165 23.8494 35.4165 25C35.4165 26.1506 36.3492 27.0833 37.4998 27.0833Z" stroke="#864971" stroke-width="4"/>
</svg>
