<svg width="50" height="50" viewBox="0 0 50 50" fill="none" xmlns="http://www.w3.org/2000/svg">
<path fill-rule="evenodd" clip-rule="evenodd" d="M24.9998 45.8333C36.5058 45.8333 45.8332 36.5059 45.8332 25C45.8332 13.4941 36.5058 4.16666 24.9998 4.16666C13.4939 4.16666 4.1665 13.4941 4.1665 25C4.1665 36.5059 13.4939 45.8333 24.9998 45.8333Z" fill="#EEEEEE" stroke="#864971" stroke-width="4"/>
<path d="M11.4585 40.625C11.4585 40.625 18.7502 37.5 20.8335 35.4167C22.9168 33.3333 16.6668 33.3333 16.6668 22.9167C16.6668 12.5 25.0002 12.5 25.0002 12.5C25.0002 12.5 33.3335 12.5 33.3335 22.9167C33.3335 33.3333 27.0835 33.3333 29.1668 35.4167C31.2502 37.5 38.5418 40.625 38.5418 40.625" stroke="#864971" stroke-width="4" stroke-linecap="round"/>
</svg>
